HIERARCHY
ROOT Hips
{
 OFFSET 0.000000 0.000000 0.000000
 CHANNELS 6 Xposition Yposition Zposition Yrotation Xrotation Zrotation
 JOINT Chest
 {
  OFFSET 0.000000 9.585900 0.002600
  CHANNELS 3 Yrotation Xrotation Zrotation
  JOINT Chest2
  {
   OFFSET 0.000000 9.601200 -0.005300
   CHANNELS 3 Yrotation Xrotation Zrotation
   JOINT Chest3
   {
    OFFSET 0.000000 9.561800 0.000000
    CHANNELS 3 Yrotation Xrotation Zrotation
    JOINT Chest4
    {
     OFFSET 0.000000 9.552100 0.000000
     CHANNELS 3 Yrotation Xrotation Zrotation
     JOINT Neck
     {
      OFFSET 0.000000 14.453000 0.000000
      CHANNELS 3 Yrotation Xrotation Zrotation
      JOINT Head
      {
       OFFSET 0.000000 8.936500 -0.011300
       CHANNELS 3 Yrotation Xrotation Zrotation
       End Site
       {
        OFFSET 0.000000 17.073600 -0.006000
       }
      }
     }
     JOINT RightCollar
     {
      OFFSET -2.921100 9.558500 0.000000
      CHANNELS 3 Yrotation Xrotation Zrotation
      JOINT RightShoulder
      {
       OFFSET -13.519700 0.000000 0.000000
       CHANNELS 3 Yrotation Xrotation Zrotation
       JOINT RightElbow
       {
        OFFSET 0.000000 -29.696600 0.000000
        CHANNELS 3 Yrotation Xrotation Zrotation
        JOINT RightWrist
        {
         OFFSET 0.000000 -24.004700 0.000000
         CHANNELS 3 Yrotation Xrotation Zrotation
         End Site
         {
          OFFSET 0.000000 -17.728500 0.000000
         }
        }
       }
      }
     }
     JOINT LeftCollar
     {
      OFFSET 2.921100 9.558500 0.000000
      CHANNELS 3 Yrotation Xrotation Zrotation
      JOINT LeftShoulder
      {
       OFFSET 13.519700 0.000000 0.000000
       CHANNELS 3 Yrotation Xrotation Zrotation
       JOINT LeftElbow
       {
        OFFSET 0.000000 -29.696600 0.000000
        CHANNELS 3 Yrotation Xrotation Zrotation
        JOINT LeftWrist
        {
         OFFSET 0.000000 -24.004700 0.000000
         CHANNELS 3 Yrotation Xrotation Zrotation
         End Site
         {
          OFFSET 0.000000 -17.728500 0.000000
         }
        }
       }
      }
     }
    }
   }
  }
 }
 JOINT RightHip
 {
  OFFSET -7.771700 -0.012900 -0.001300
  CHANNELS 3 Yrotation Xrotation Zrotation
  JOINT RightKnee
  {
   OFFSET 0.000000 -40.869800 0.001200
   CHANNELS 3 Yrotation Xrotation Zrotation
   JOINT RightAnkle
   {
    OFFSET 0.000000 -39.717900 0.002100
    CHANNELS 3 Yrotation Xrotation Zrotation
    JOINT RightToe
    {
     OFFSET 0.000000 -4.965400 11.033500
     CHANNELS 3 Yrotation Xrotation Zrotation
     End Site
     {
      OFFSET 0.000000 -1.423100 5.872300
     }
    }
   }
  }
 }
 JOINT LeftHip
 {
  OFFSET 7.771700 -0.012900 -0.001300
  CHANNELS 3 Yrotation Xrotation Zrotation
  JOINT LeftKnee
  {
   OFFSET 0.000000 -40.869800 0.001200
   CHANNELS 3 Yrotation Xrotation Zrotation
   JOINT LeftAnkle
   {
    OFFSET 0.000000 -39.717900 0.002100
    CHANNELS 3 Yrotation Xrotation Zrotation
    JOINT LeftToe
    {
     OFFSET 0.000000 -4.965400 11.033500
     CHANNELS 3 Yrotation Xrotation Zrotation
     End Site
     {
      OFFSET 0.000000 -1.423100 5.872300
     }
    }
   }
  }
 }
}
MOTION
Frames: 8
Frame Time: 0.008333
-34.217958 61.436508 22.483348 155.556494 -9.892024 1.217903 3.152862 10.774351 1.331396 0.199512 0.818843 0.097034 0.422823 1.207588 0.201994 3.173066 9.946968 1.720175 4.254890 15.172711 -0.880579 4.697720 -9.836353 -1.902837 4.778857 -1.981877 -7.226663 12.703468 -9.506822 -18.691337 40.349599 -48.672571 -15.838962 3.934675 3.124512 -47.132003 -7.661518 -8.964972 -0.881012 -15.604121 -11.409180 11.469856 -59.261962 -29.692652 33.849407 -2.477584 -10.143576 34.835406 -5.795992 -57.958559 8.582110 -19.721814 72.077071 -15.147023 1.989737 -6.602491 -4.709549 -0.177053 -0.667419 -0.113904 22.734882 -56.220880 -3.717857 30.941453 70.891348 29.889097 -17.602110 -17.832233 2.154210 0.847314 0.644845 0.342832
-34.208239 61.426987 22.495048 155.569757 -9.957686 1.236049 3.166688 10.769302 1.334144 0.221079 0.762685 0.106168 0.402823 1.260141 0.193082 3.194918 9.915154 1.722073 4.200637 15.139008 -0.867157 4.670637 -9.736127 -1.887136 4.901647 -1.927316 -7.107229 12.918656 -9.736289 -18.798554 40.103092 -48.335336 -15.905870 4.000722 3.363066 -46.919428 -7.618733 -8.826782 -1.000834 -15.285714 -11.543598 11.323799 -58.773586 -29.746041 33.697663 -2.584356 -9.792984 34.654325 -5.789295 -57.900610 8.546866 -19.709096 72.082157 -15.134943 1.998303 -6.609917 -4.715155 -0.183718 -0.657096 -0.114330 22.690846 -56.179146 -3.679008 30.964221 70.901200 29.917542 -17.582577 -17.812578 2.139832 0.838230 0.635238 0.339052
-34.200356 61.416894 22.507466 155.573332 -10.014099 1.260421 3.195824 10.755399 1.332696 0.230120 0.743503 0.109385 0.395811 1.275815 0.189498 3.218907 9.883444 1.722470 4.135973 15.147929 -0.853195 4.642827 -9.677301 -1.871277 5.017235 -1.878358 -6.985328 13.118665 -9.953861 -18.907141 39.870747 -48.003766 -15.972062 4.066907 3.598263 -46.704370 -7.579512 -8.688402 -1.116151 -14.963336 -11.692158 11.171335 -58.313709 -29.788659 33.542751 -2.690137 -9.430636 34.494304 -5.768924 -57.852785 8.506326 -19.697026 72.085412 -15.124633 2.003004 -6.620665 -4.714317 -0.185709 -0.641293 -0.120336 22.670540 -56.145684 -3.656186 30.984505 70.918694 29.939500 -17.547529 -17.792184 2.138792 0.800331 0.621908 0.322967
-34.190516 61.406626 22.520120 155.537662 -10.072473 1.276495 3.271542 10.742833 1.345599 0.231168 0.742430 0.109217 0.372910 1.311067 0.185027 3.259722 9.836745 1.723242 4.074829 15.191473 -0.839575 4.531310 -9.763746 -1.833673 5.142701 -1.852221 -6.864160 13.297889 -10.164316 -19.014119 39.651629 -47.673293 -16.035836 4.139013 3.824847 -46.487476 -7.531028 -8.569551 -1.223014 -14.644090 -11.858348 11.011830 -57.886000 -29.810989 33.387272 -2.799702 -9.060966 34.350231 -5.792806 -57.799182 8.533489 -19.631398 72.096090 -15.079779 2.013166 -6.652297 -4.726976 -0.189846 -0.605647 -0.120077 22.668181 -56.114796 -3.611869 31.011184 70.934527 29.968522 -17.426960 -17.748863 2.137653 0.721592 0.581984 0.286069
-34.187332 61.396133 22.531252 155.566840 -10.123190 1.317074 3.279082 10.721805 1.320390 0.232575 0.741618 0.109050 0.387621 1.291397 0.187066 3.266887 9.846367 1.721943 4.007866 15.234463 -0.824190 4.442300 -9.821584 -1.803816 5.263153 -1.825192 -6.744117 13.463639 -10.369486 -19.115012 39.442644 -47.343808 -16.099827 4.217645 4.041098 -46.278285 -7.480741 -8.452980 -1.327188 -14.338705 -12.033059 10.847601 -57.489903 -29.808739 33.241331 -2.913301 -8.692860 34.210094 -5.784495 -57.758022 8.464951 -19.617112 72.102992 -15.070136 2.015714 -6.672505 -4.738678 -0.183642 -0.585875 -0.107405 22.657538 -56.076747 -3.630636 31.023585 70.938955 29.990612 -17.450405 -17.715729 2.136927 0.654992 0.569708 0.267373
-34.180639 61.385832 22.542022 155.587587 -10.183348 1.336696 3.288820 10.726741 1.313883 0.247683 0.723288 0.111123 0.402705 1.271140 0.188780 3.275298 9.856638 1.721380 3.941779 15.177112 -0.812063 4.398199 -9.724252 -1.775372 5.376225 -1.798594 -6.626034 13.625831 -10.567212 -19.209958 39.239232 -47.015844 -16.166102 4.297808 4.247432 -46.084371 -7.430295 -8.341706 -1.432691 -14.048011 -12.204804 10.681752 -57.135513 -29.787955 33.121565 -3.022675 -8.326871 34.063556 -5.799556 -57.704354 8.435454 -19.573293 72.111957 -15.030999 2.014442 -6.685725 -4.752574 -0.181537 -0.572342 -0.105437 22.616573 -56.036729 -3.612729 31.054860 70.943514 30.024630 -17.372228 -17.699426 2.120057 0.638898 0.564623 0.258061
-34.166396 61.376159 22.551595 155.620889 -10.267841 1.312065 3.270729 10.790541 1.342398 0.291496 0.669924 0.118302 0.405441 1.269564 0.188440 3.297174 9.847181 1.720784 3.871367 15.158655 -0.797022 4.297126 -9.726203 -1.733790 5.483242 -1.771426 -6.510515 13.781187 -10.761418 -19.295834 39.047917 -46.686855 -16.239193 4.372284 4.442078 -45.904760 -7.385144 -8.233708 -1.539834 -13.771824 -12.371617 10.519484 -56.831658 -29.756832 33.033807 -3.128013 -7.956606 33.911409 -5.868798 -57.620299 8.465773 -19.576031 72.118299 -15.026282 2.026520 -6.686164 -4.766214 -0.186529 -0.575511 -0.105245 22.487054 -55.987208 -3.518789 31.187687 70.925264 30.154365 -17.196093 -17.710085 2.065142 0.723673 0.575295 0.276868
-34.155009 61.366705 22.559252 155.635118 -10.353844 1.307891 3.353156 10.750809 1.385054 0.252657 0.721803 0.111386 0.408577 1.268052 0.187983 3.322179 9.837184 1.719248 3.790798 15.198862 -0.779054 4.198664 -9.783595 -1.699532 5.576480 -1.744636 -6.397450 13.932050 -10.954137 -19.370806 38.876050 -46.360035 -16.321180 4.438792 4.629062 -45.735430 -7.343757 -8.124855 -1.647377 -13.519996 -12.535735 10.363741 -56.571274 -29.717507 32.974720 -3.236216 -7.580820 33.751849 -5.890612 -57.537858 8.461525 -19.579122 72.124758 -15.018758 2.028588 -6.690966 -4.786737 -0.179854 -0.574177 -0.093727 22.395984 -55.930160 -3.442084 31.254738 70.935307 30.207184 -17.024018 -17.717473 2.040372 0.771233 0.576619 0.284495
